<svg width="191" height="163" viewBox="0 0 191 163" fill="none" xmlns="http://www.w3.org/2000/svg">
<g clip-path="url(#clip0_601_24)">
<rect width="191" height="163" rx="10" fill="white"/>
<path d="M31.3144 103.35H60.5544C61.2344 107.657 63.1044 111.453 66.1644 114.74C69.3377 117.913 73.5311 120.407 78.7444 122.22C84.0711 123.92 90.1911 124.77 97.1044 124.77C107.191 124.77 115.124 123.353 120.904 120.52C126.798 117.573 129.744 113.493 129.744 108.28C129.744 104.2 128.044 101.083 124.644 98.93C121.358 96.6633 115.181 95.02 106.114 94L80.4444 91.11C63.8977 89.2967 51.8844 85.4433 44.4044 79.55C37.0377 73.5433 33.3544 65.2133 33.3544 54.56C33.3544 46.1733 35.7911 39.0333 40.6644 33.14C45.6511 27.2467 52.6211 22.77 61.5744 19.71C70.5277 16.5367 81.0677 14.95 93.1944 14.95C104.981 14.95 115.464 16.7067 124.644 20.22C133.824 23.62 141.134 28.4367 146.574 34.67C152.014 40.79 154.961 47.9867 155.414 56.26H126.174C125.608 52.52 123.908 49.29 121.074 46.57C118.354 43.7367 114.558 41.5833 109.684 40.11C104.811 38.5233 99.0877 37.73 92.5144 37.73C83.3344 37.73 76.0244 39.09 70.5844 41.81C65.1444 44.53 62.4244 48.3833 62.4244 53.37C62.4244 57.2233 64.0111 60.2267 67.1844 62.38C70.4711 64.42 76.1944 65.95 84.3544 66.97L111.044 70.2C122.831 71.4467 132.181 73.4867 139.094 76.32C146.121 79.04 151.108 82.7233 154.054 87.37C157.114 92.0167 158.644 97.91 158.644 105.05C158.644 113.55 156.038 121.03 150.824 127.49C145.724 133.837 138.528 138.767 129.234 142.28C119.941 145.793 109.061 147.55 96.5944 147.55C83.9011 147.55 72.7377 145.737 63.1044 142.11C53.4711 138.37 45.8777 133.213 40.3244 126.64C34.7711 119.953 31.7677 112.19 31.3144 103.35Z" fill="black"/>
</g>
<defs>
<clipPath id="clip0_601_24">
<rect width="191" height="163" rx="10" fill="white"/>
</clipPath>
</defs>
</svg>
